<svg xmlns="http://www.w3.org/2000/svg" viewBox="0 0 1200 800" fill="none">
  <defs>
    <linearGradient id="brandBlue" x1="0" y1="0" x2="1" y2="1">
      <stop offset="0%" stop-color="#2EA8FF"/>
      <stop offset="100%" stop-color="#0C5FD2"/>
    </linearGradient>
  </defs>

  <g transform="translate(240 150)">
    <g fill="#0A2746">
      <rect x="0" y="154" width="34" height="72" rx="14"/>
      <rect x="34" y="144" width="24" height="92" rx="12"/>
      <rect x="58" y="134" width="20" height="112" rx="10"/>
      <rect x="622" y="154" width="34" height="72" rx="14"/>
      <rect x="598" y="144" width="24" height="92" rx="12"/>
      <rect x="578" y="134" width="20" height="112" rx="10"/>
      <rect x="78" y="176" width="130" height="28" rx="14"/>
      <rect x="448" y="176" width="130" height="28" rx="14"/>
      <path d="M208 190L338 248L448 190" stroke="#0A2746" stroke-width="26" stroke-linecap="round" stroke-linejoin="round"/>
      <path d="M216 232L338 302L440 232" stroke="#0A2746" stroke-width="20" stroke-linecap="round" stroke-linejoin="round"/>
    </g>

    <g fill="url(#brandBlue)">
      <path d="M250 165L300 145V206L250 197V165Z"/>
      <path d="M312 130L374 96V238L312 217V130Z"/>
      <path d="M386 82L446 46V248L386 274V82Z"/>
    </g>

    <text x="20" y="480" font-family="Poppins, Montserrat, Segoe UI, sans-serif" font-size="100" font-weight="700" letter-spacing="0.5">
      <tspan fill="url(#brandBlue)">my</tspan><tspan fill="#0A2746">gym</tspan><tspan fill="white" stroke="#0A2746" stroke-width="6" paint-order="stroke">software</tspan>
    </text>
  </g>
</svg>
